<svg xmlns="http://www.w3.org/2000/svg" xmlns:xlink="http://www.w3.org/1999/xlink" fill="none" version="1.1" width="24" height="24" viewBox="0 0 24 24"><defs><clipPath id="master_svg0_1_12"><rect x="0" y="0" width="24" height="24" rx="0"/></clipPath></defs><g clip-path="url(#master_svg0_1_12)"><g><path d="M7,6L7,3C7,2.447715,7.44772,2,8,2L20,2C20.5523,2,21,2.447715,21,3L21,17C21,17.552300000000002,20.5523,18,20,18L17,18L17,21C17,21.552,16.55,22,15.993,22L4.007,22C3.452213,22.0033,3.000545025,21.5548,3,21L3.00300002,7C3.00300002,6.448,3.453,6,4.009,6L7,6ZM5.002,8L5,20L15,20L15,8L5.002,8ZM9,6L17,6L17,16L19,16L19,4L9,4L9,6ZM7,11L13,11L13,13L7,13L7,11ZM7,15L13,15L13,17L7,17L7,15Z" fill="#FF9900" fill-opacity="1"/></g></g></svg>