<svg xmlns="http://www.w3.org/2000/svg" xmlns:xlink="http://www.w3.org/1999/xlink" fill="none" version="1.1" width="24" height="24" viewBox="0 0 24 24"><defs><clipPath id="master_svg0_1_20"><rect x="0" y="0" width="24" height="24" rx="0"/></clipPath></defs><g clip-path="url(#master_svg0_1_20)"><g><path d="M12,22C6.477,22,2,17.523,2,12C2,6.477,6.477,2,12,2C17.523,2,22,6.477,22,12C22,17.523,17.523,22,12,22ZM9.71,19.667C8.723410000000001,17.5743,8.151869999999999,15.3102,8.027000000000001,13L4.061999999999999,13C4.45956,16.144199999999998,6.67395,18.7581,9.71,19.667ZM10.03,13C10.181,15.439,10.878,17.73,12,19.752C13.1523,17.6765,13.8254,15.3695,13.97,13L10.03,13ZM19.938,13L15.973,13C15.8481,15.3102,15.2766,17.5743,14.29,19.667C17.326,18.7581,19.5404,16.144199999999998,19.938,13ZM4.061999999999999,11L8.027000000000001,11C8.151869999999999,8.68979,8.72342,6.42569,9.71,4.333C6.67395,5.24194,4.45956,7.85585,4.061999999999999,11ZM10.031,11L13.969,11C13.8248,8.630600000000001,13.152,6.32353,12,4.248C10.84768,6.32345,10.17456,8.63052,10.03,11L10.031,11ZM14.29,4.333C15.2766,6.42569,15.8481,8.68979,15.973,11L19.938,11C19.5404,7.85585,17.326,5.24194,14.29,4.333Z" fill="#FF9900" fill-opacity="1"/></g></g></svg>