<svg xmlns="http://www.w3.org/2000/svg" xmlns:xlink="http://www.w3.org/1999/xlink" fill="none" version="1.1" width="87.49991607666016" height="67.94538116455078" viewBox="0 0 87.49991607666016 67.94538116455078"><g><path d="M87.2299,16.5926C85.8686,11.8674,79.9939,9.57113,69.7714,9.76188C69.4604,9.76775,69.1254,9.79213,68.8084,9.80212C62.6702,3.74625,54.2478,0,44.9642,0C28.8646,0,15.3549,11.2601,11.8723,26.3164C11.7258,26.4031,11.5637,26.4885,11.4194,26.5753C2.66144,31.8515,-1.0893,36.9228,0.272196,41.6469C1.4692,45.8023,6.16545,48.0736,14.2306,48.432C19.6726,59.9525,31.4003,67.9454,44.9642,67.9454C63.6971,67.9454,78.9368,52.7055,78.9368,33.9728C78.9368,32.6268,78.8493,31.3015,78.6963,29.9958C84.7618,25.8699,88.5753,21.2623,87.2299,16.5926ZM44.9642,7.27975C49.7848,7.27975,54.3068,8.571,58.2144,10.8154C61.1071,12.4777,63.6651,14.6639,65.7578,17.2623C67.9171,19.9439,69.5673,23.0489,70.5656,26.4326C64.7822,29.6603,56.4816,33.2605,45.8287,36.3301C34.9868,39.4546,25.9021,40.8229,19.2558,41.1365C18.6191,38.855,18.2713,36.4541,18.2713,33.9725C18.2713,32.9636,18.3328,31.9691,18.4422,30.9893C18.813,27.663,19.8109,24.4373,21.3832,21.4828C25.8722,13.0421,34.7561,7.27975,44.9642,7.27975ZM7.31495,39.6182C7.52195,38.7044,8.78657,37.2846,11.0322,35.5822C11.1169,37.3931,11.3467,39.1943,11.7194,40.9684C9.41345,40.6947,7.90445,40.2089,7.31495,39.6182ZM44.9642,60.6655C35.4824,60.6655,27.1456,55.692,22.4091,48.2207C29.9688,47.6137,38.8003,45.9313,47.8442,43.3258C54.9216,41.2866,63.9804,38.0534,71.6533,34.1208C71.5727,48.7711,59.6331,60.6655,44.9642,60.6655ZM76.8813,22.3306C76.2202,20.5238,75.4019,18.7932,74.4572,17.1439C77.5186,17.3714,79.4913,17.9235,80.1871,18.6211C79.9934,19.4749,78.8581,20.7757,76.8813,22.3306Z" fill="#FF9900" fill-opacity="1"/></g></svg>