<?xml version="1.0" standalone="no"?><!DOCTYPE svg PUBLIC "-//W3C//DTD SVG 1.1//EN" "http://www.w3.org/Graphics/SVG/1.1/DTD/svg11.dtd"><svg t="1682080529900" class="icon" viewBox="0 0 1024 1024" version="1.1" xmlns="http://www.w3.org/2000/svg" p-id="2645" xmlns:xlink="http://www.w3.org/1999/xlink" width="128" height="128"><path d="M860.084255 294.438962c0 30.008454-24.26566 54.374398-54.241368 54.374398L218.155067 348.813361c-29.942963 0-54.241368-24.365944-54.241368-54.374398l0 0c0-30.0412 24.298406-54.373375 54.241368-54.373375l587.68782 0C835.818595 240.064564 860.084255 264.396739 860.084255 294.438962L860.084255 294.438962zM860.084255 516.514827c0 30.008454-24.26566 54.373375-54.241368 54.373375L218.155067 570.888202c-29.942963 0-54.241368-24.364921-54.241368-54.373375l0 0c0-30.042223 24.298406-54.374398 54.241368-54.374398l587.68782 0C835.818595 462.140429 860.084255 486.472604 860.084255 516.514827L860.084255 516.514827zM860.084255 729.528292c0 30.0412-24.26566 54.406121-54.241368 54.406121L218.155067 783.934412c-29.942963 0-54.241368-24.364921-54.241368-54.406121l0 0c0-30.0412 24.298406-54.407144 54.241368-54.407144l587.68782 0C835.818595 675.121148 860.084255 699.487092 860.084255 729.528292L860.084255 729.528292z" fill="#ffffff" p-id="2646"></path></svg>