<svg xmlns="http://www.w3.org/2000/svg" xmlns:xlink="http://www.w3.org/1999/xlink" fill="none" version="1.1" width="24" height="24" viewBox="0 0 24 24"><defs><clipPath id="master_svg0_1_04"><rect x="0" y="0" width="24" height="24" rx="0"/></clipPath></defs><g clip-path="url(#master_svg0_1_04)"><g><path d="M6,8L6,7C6,3.68629,8.68629,1,12,1C15.3137,1,18,3.68629,18,7L18,8L20,8C20.5523,8,21,8.44771,21,9L21,21C21,21.5523,20.5523,22,20,22L4,22C3.447715,22,3,21.5523,3,21L3,9C3,8.44771,3.447715,8,4,8L6,8ZM19,10L5,10L5,20L19,20L19,10ZM11,15.732C9.923110000000001,15.1103,9.668610000000001,13.6669,10.46791,12.7144C11.26721,11.7618,12.73279,11.7618,13.5321,12.7144C14.3314,13.6669,14.0769,15.1103,13,15.732L13,18L11,18L11,15.732ZM8,8L16,8L16,7C16,4.79086,14.2091,3,12,3C9.79086,3,8,4.79086,8,7L8,8Z" fill="#FF9900" fill-opacity="1"/></g></g></svg>