<svg xmlns="http://www.w3.org/2000/svg" xmlns:xlink="http://www.w3.org/1999/xlink" fill="none" version="1.1" width="24" height="24" viewBox="0 0 24 24"><defs><clipPath id="master_svg0_1_00"><rect x="0" y="0" width="24" height="24" rx="0"/></clipPath></defs><g clip-path="url(#master_svg0_1_00)"><g><path d="M15,4L5,4L5,20L19,20L19,8L15,8L15,4ZM3,2.992C3,2.444,3.447,2,3.999,2L16,2L21,7L21,20.993C21.0039,21.5453,20.5593,21.9961,20.007,22L3.993,22C3.446555,21.9962,3.00435781,21.5544,3,21.008L3,2.992ZM12,11.5C10.61881,11.50067,9.49878,10.38119,9.49878,9C9.49878,7.61881,10.61881,6.49933,12,6.5C13.3802,6.50067,14.4988,7.61976,14.4988,9C14.4988,10.38024,13.3802,11.49933,12,11.5ZM7.527,17C7.778,14.719,9.705210000000001,12.9922,12,12.9922C14.2948,12.9922,16.222,14.719,16.473,17L7.527,17Z" fill="#FF9900" fill-opacity="1"/></g></g></svg>