<svg xmlns="http://www.w3.org/2000/svg" xmlns:xlink="http://www.w3.org/1999/xlink" fill="none" version="1.1" width="24" height="24" viewBox="0 0 24 24"><defs><clipPath id="master_svg0_1_08"><rect x="0" y="0" width="24" height="24" rx="0"/></clipPath></defs><g clip-path="url(#master_svg0_1_08)"><g><path d="M12.916997437000274,13.000002681732177C12.388897437000274,16.06815268173218,9.602487437000274,18.223252681732177,6.500087437000275,17.962952681732176C3.3976774370002745,17.70255268173218,1.0093696070002747,15.113292681732178,1.0000000000002747,12.000002681732177C0.9971502970002747,8.878692681732177,3.387907437000275,6.2765366817321775,6.498277437000275,6.015534381732178C9.608657437000275,5.754531681732177,12.399597437000274,7.921872681732178,12.916997437000274,11.000002681732177L22.999997437000275,11.000002681732177L22.999997437000275,13.000002681732177L20.999997437000275,13.000002681732177L20.999997437000275,16.999952681732175L18.999997437000275,16.999952681732175L18.999997437000275,13.000002681732177L16.999997437000275,13.000002681732177L16.999997437000275,16.999952681732175L14.999997437000275,16.999952681732175L14.999997437000275,13.000002681732177L12.916997437000274,13.000002681732177ZM6.999997437000275,15.999952681732177C9.209137437000274,15.999952681732177,10.999997437000275,14.209142681732178,10.999997437000275,12.000002681732177C10.999997437000275,9.790862681732177,9.209137437000274,8.000002681732177,6.999997437000275,8.000002681732177C4.790857437000275,8.000002681732177,2.9999974370002747,9.790862681732177,2.9999974370002747,12.000002681732177C2.9999974370002747,14.209142681732178,4.790857437000275,15.999952681732177,6.999997437000275,15.999952681732177Z" fill="#FF9900" fill-opacity="1"/></g></g></svg>