<svg xmlns="http://www.w3.org/2000/svg" xmlns:xlink="http://www.w3.org/1999/xlink" fill="none" version="1.1" width="24" height="24" viewBox="0 0 24 24"><defs><clipPath id="master_svg0_1_16"><rect x="0" y="0" width="24" height="24" rx="0"/></clipPath></defs><g clip-path="url(#master_svg0_1_16)"><g><path d="M2,11.999999988555908C2,11.134999988555908,2.11,10.296999988555907,2.316,9.495999988555909C3.4424799999999998,9.555209988555909,4.506959999999999,8.977519988555908,5.071210000000001,8.000739988555909C5.6354500000000005,7.023969988555908,5.60408,5.8132399885559085,4.99,4.866999988555908C6.19894,3.6775699885559083,7.69079,2.815495988555908,9.325,2.361999988555908C9.836780000000001,3.368219988555908,10.87011,4.0019599885559085,11.999,4.0019599885559085C13.1279,4.0019599885559085,14.1612,3.368219988555908,14.673,2.361999988555908C16.3072,2.815495988555908,17.7991,3.6775699885559083,19.008,4.866999988555908C18.3932,5.813429988555908,18.3616,7.0248099885559085,18.9262,8.002009988555908C19.4908,8.979219988555908,20.556,9.556889988555909,21.683,9.496999988555908C21.889,10.296999988555907,21.999,11.134999988555908,21.999,11.999999988555908C21.999,12.864999988555908,21.889,13.702999988555908,21.683,14.503999988555908C20.5563,14.444399988555908,19.4915,15.021899988555909,18.927,15.998799988555907C18.3625,16.975599988555906,18.3938,18.18659998855591,19.008,19.13299998855591C17.7991,20.322399988555908,16.3072,21.18449998855591,14.673,21.637999988555908C14.1612,20.63179998855591,13.1279,19.997999988555907,11.999,19.997999988555907C10.87011,19.997999988555907,9.836780000000001,20.63179998855591,9.325,21.637999988555908C7.69079,21.18449998855591,6.19894,20.322399988555908,4.99,19.13299998855591C5.60478,18.18659998855591,5.6363900000000005,16.975199988555907,5.07181,15.997999988555907C4.50723,15.020799988555908,3.44198,14.443099988555907,2.314999,14.502999988555908C2.11,13.703999988555909,2,12.865999988555908,2,11.999999988555908ZM6.804,14.999999988555908C7.434,16.090999988555907,7.614,17.34599998855591,7.368,18.523999988555907C7.776,18.81399998855591,8.21,19.064999988555908,8.665,19.273999988555907C9.581669999999999,18.45279998855591,10.76931,17.99909998855591,12,17.999999988555906C13.26,17.999999988555906,14.438,18.47099998855591,15.335,19.273999988555907C15.79,19.064999988555908,16.224,18.81399998855591,16.631999999999998,18.523999988555907C16.3794,17.319999988555907,16.5803,16.065099988555907,17.195999999999998,14.999999988555908C17.8106,13.934399988555908,18.797,13.133199988555909,19.966,12.749999988555908C20.0122,12.251069988555908,20.0122,11.748929988555908,19.966,11.249999988555908C18.7966,10.867059988555908,17.8099,10.065819988555909,17.195,8.999999988555908C16.5793,7.934929988555909,16.3784,6.680039988555908,16.631,5.475999988555908C16.223100000000002,5.185919988555908,15.7889,4.934819988555908,15.334,4.725999988555908C14.4176,5.546929988555908,13.2303,6.000609988555908,12,5.999999988555908C10.76931,6.000849988555908,9.581669999999999,5.547159988555908,8.665,4.725999988555908C8.21013,4.934819988555908,7.77589,5.185929988555908,7.368,5.475999988555908C7.62056,6.680039988555908,7.41972,7.934929988555909,6.804,8.999999988555908C6.18937,10.065629988555909,5.20298,10.866849988555908,4.034,11.249999988555908C3.98775,11.748929988555908,3.98775,12.251069988555908,4.034,12.749999988555908C5.20335,13.132899988555907,6.19013,13.934199988555909,6.804,14.999999988555908L6.804,14.999999988555908ZM12,14.999999988555908C10.34315,14.999999988555908,9,13.656899988555908,9,11.999999988555908C9,10.343149988555908,10.34315,8.999999988555908,12,8.999999988555908C13.6569,8.999999988555908,15,10.343149988555908,15,11.999999988555908C15,13.656899988555908,13.6569,14.999999988555908,12,14.999999988555908ZM12,12.999999988555908C12.5523,12.999999988555908,13,12.552299988555909,13,11.999999988555908C13,11.447709988555909,12.5523,10.999999988555908,12,10.999999988555908C11.44771,10.999999988555908,11,11.447709988555909,11,11.999999988555908C11,12.552299988555909,11.44771,12.999999988555908,12,12.999999988555908Z" fill="#FF9900" fill-opacity="1"/></g></g></svg>