<svg xmlns="http://www.w3.org/2000/svg" xmlns:xlink="http://www.w3.org/1999/xlink" fill="none" version="1.1" width="24" height="24" viewBox="0 0 24 24"><defs><clipPath id="master_svg0_1_6"><rect x="0" y="0" width="24" height="24" rx="0"/></clipPath></defs><g clip-path="url(#master_svg0_1_6)"><g><path d="M5,20L19,20L19,22L5,22L5,20ZM12,18C7.58172,18,4,14.4183,4,10C4,5.58172,7.58172,2,12,2C16.418300000000002,2,20,5.58172,20,10C20,14.4183,16.418300000000002,18,12,18ZM12,16C15.3137,16,18,13.3137,18,10C18,6.68629,15.3137,4,12,4C8.68629,4,6,6.68629,6,10C6,13.3137,8.68629,16,12,16Z" fill="#FF9900" fill-opacity="1"/></g></g></svg>